{
	"asset":{
		"generator":"Khronos glTF Blender I/O v4.2.57",
		"version":"2.0"
	},
	"scene":0,
	"scenes":[
		{
			"name":"Scene",
			"nodes":[
				0
			]
		}
	],
	"nodes":[
		{
			"mesh":0,
			"name":"group1519172617"
		}
	],
	"materials":[
		{
			"name":"mat4",
			"pbrMetallicRoughness":{
				"baseColorFactor":[
					0,
					0.5199999809265137,
					0.6600000262260437,
					1
				],
				"metallicFactor":0
			}
		},
		{
			"name":"mat10",
			"pbrMetallicRoughness":{
				"baseColorFactor":[
					0.07000000029802322,
					0.4399999976158142,
					0.07999999821186066,
					1
				],
				"metallicFactor":0
			}
		}
	],
	"meshes":[
		{
			"name":"mesh1519172617",
			"primitives":[
				{
					"attributes":{
						"POSITION":0,
						"NORMAL":1,
						"TEXCOORD_0":2
					},
					"indices":3,
					"material":0
				},
				{
					"attributes":{
						"POSITION":4,
						"NORMAL":5,
						"TEXCOORD_0":6
					},
					"indices":7,
					"material":1
				}
			]
		}
	],
	"accessors":[
		{
			"bufferView":0,
			"componentType":5126,
			"count":1180,
			"max":[
				0.6844413876533508,
				0.6950001120567322,
				0.6844413876533508
			],
			"min":[
				-0.6844413876533508,
				-0.6949999928474426,
				-0.6844413876533508
			],
			"type":"VEC3"
		},
		{
			"bufferView":1,
			"componentType":5126,
			"count":1180,
			"type":"VEC3"
		},
		{
			"bufferView":2,
			"componentType":5126,
			"count":1180,
			"type":"VEC2"
		},
		{
			"bufferView":3,
			"componentType":5123,
			"count":1665,
			"type":"SCALAR"
		},
		{
			"bufferView":4,
			"componentType":5126,
			"count":869,
			"max":[
				0.6844413876533508,
				0.6950001120567322,
				0.5817282795906067
			],
			"min":[
				-0.6844413876533508,
				-0.6949999928474426,
				-0.6615170240402222
			],
			"type":"VEC3"
		},
		{
			"bufferView":5,
			"componentType":5126,
			"count":869,
			"type":"VEC3"
		},
		{
			"bufferView":6,
			"componentType":5126,
			"count":869,
			"type":"VEC2"
		},
		{
			"bufferView":7,
			"componentType":5123,
			"count":1215,
			"type":"SCALAR"
		}
	],
	"bufferViews":[
		{
			"buffer":0,
			"byteLength":14160,
			"byteOffset":0,
			"target":34962
		},
		{
			"buffer":0,
			"byteLength":14160,
			"byteOffset":14160,
			"target":34962
		},
		{
			"buffer":0,
			"byteLength":9440,
			"byteOffset":28320,
			"target":34962
		},
		{
			"buffer":0,
			"byteLength":3330,
			"byteOffset":37760,
			"target":34963
		},
		{
			"buffer":0,
			"byteLength":10428,
			"byteOffset":41092,
			"target":34962
		},
		{
			"buffer":0,
			"byteLength":10428,
			"byteOffset":51520,
			"target":34962
		},
		{
			"buffer":0,
			"byteLength":6952,
			"byteOffset":61948,
			"target":34962
		},
		{
			"buffer":0,
			"byteLength":2430,
			"byteOffset":68900,
			"target":34963
		}
	],
	"buffers":[
		{
			"byteLength":71332,
			"uri":"data:application/octet-stream;base64,"
		}
	]
}
